<svg xmlns="http://www.w3.org/2000/svg" width="486" height="229.5" viewBox="0 0 486 229.5">
  <g id="Group_1" data-name="Group 1" transform="translate(-978 -906.5)">
    <text id="EDIVAL" transform="translate(996 1094)" stroke="#0c0c0c" stroke-width="1" font-size="121" font-family="IM_FELL_DW_Pica_SC, IM FELL DW Pica SC"><tspan x="0" y="0">EDIVAL</tspan></text>
    <path id="Icon_awesome-crown" data-name="Icon awesome-crown" d="M91.832,62.125H19.479A2.557,2.557,0,0,0,16.7,64.344v4.438A2.557,2.557,0,0,0,19.479,71H91.832a2.557,2.557,0,0,0,2.783-2.219V64.344A2.557,2.557,0,0,0,91.832,62.125ZM102.963,17.75c-4.609,0-8.348,2.981-8.348,6.656a5.443,5.443,0,0,0,.765,2.746L82.788,33.17c-2.678,1.276-6.14.555-7.687-1.609L60.926,11.787A6.234,6.234,0,0,0,64,6.656C64,2.981,60.265,0,55.656,0s-8.348,2.981-8.348,6.656a6.234,6.234,0,0,0,3.078,5.131L36.211,31.562c-1.548,2.163-5.026,2.884-7.687,1.609L15.949,27.152a5.582,5.582,0,0,0,.765-2.746c0-3.675-3.739-6.656-8.348-6.656S0,20.731,0,24.406s3.739,6.656,8.348,6.656a10.624,10.624,0,0,0,1.339-.111L22.262,57.688H89.049l12.575-26.736a10.623,10.623,0,0,0,1.339.111c4.609,0,8.348-2.981,8.348-6.656S107.572,17.75,102.963,17.75Z" transform="translate(1164.844 907)" stroke="#000" stroke-width="1"/>
    <line id="Line_9" data-name="Line 9" x2="485" transform="translate(978 981)" fill="none" stroke="#000" stroke-width="5"/>
  </g>
</svg>
